<svg width="133.8" height="94.3" viewBox="0 0 133.8 94.3" xmlns="http://www.w3.org/2000/svg"><g id="svgGroup" stroke-linecap="round" fill-rule="evenodd" font-size="9pt" stroke="#ffffff" stroke-width="0.25mm" fill="#ffffff" style="stroke:#ffffff;stroke-width:0.25mm;fill:#ffffff"><path d="M 71.6 42.3 L 67.8 50.1 A 220.581 220.581 0 0 0 63.538 59.467 Q 57.778 73.026 57.513 80.13 A 17.984 17.984 0 0 0 57.5 80.8 Q 57.5 81 57.55 81.6 Q 57.6 82.2 57.6 82.6 Q 57.6 84.2 56.7 84.2 Q 55.305 84.2 53.709 82.214 A 14.743 14.743 0 0 1 53 81.25 A 10.699 10.699 0 0 1 51.564 78.056 Q 51 76.003 51 73.4 A 24.126 24.126 0 0 1 51.296 69.785 Q 51.798 66.488 53.15 62.4 Q 54.901 57.106 58.012 50.585 A 161.662 161.662 0 0 1 59.5 47.55 Q 63.257 40.081 65.934 35.212 A 184.088 184.088 0 0 1 66.55 34.1 Q 69.099 29.538 73.129 22.495 A 2647.78 2647.78 0 0 1 74.1 20.8 Q 74.331 20.339 74.384 20.055 A 0.846 0.846 0 0 0 74.4 19.9 A 1.594 1.594 0 0 0 74.308 19.705 Q 74.189 19.496 74.042 19.43 A 0.343 0.343 0 0 0 73.9 19.4 A 1.577 1.577 0 0 0 73.23 19.556 Q 72.965 19.679 72.7 19.9 A 58.532 58.532 0 0 0 69.089 23.13 Q 64.1 27.934 57.2 36.2 Q 49.475 45.454 43.693 53.154 A 272.601 272.601 0 0 0 41 56.8 L 34.3 65.9 A 15.468 15.468 0 0 1 33.675 66.776 Q 32.709 68.025 32 68.251 A 0.989 0.989 0 0 1 31.7 68.3 A 0.739 0.739 0 0 1 31.437 68.255 A 0.664 0.664 0 0 1 31.2 68.1 Q 31.015 67.915 30.916 67.602 A 1.86 1.86 0 0 1 30.9 67.55 Q 30.8 67.2 30.75 66.9 A 4.666 4.666 0 0 1 30.722 66.706 Q 30.711 66.618 30.705 66.542 A 2.029 2.029 0 0 1 30.7 66.4 L 30.7 66.2 Q 31.236 61.453 32.153 53.834 A 3969.901 3969.901 0 0 1 32.75 48.9 A 8616.077 8616.077 0 0 0 33.699 41.067 Q 34.068 38.009 34.394 35.292 A 4086.388 4086.388 0 0 0 35 30.2 A 4122.146 4122.146 0 0 0 35.211 28.416 Q 35.9 22.575 35.9 22.4 A 3.82 3.82 0 0 0 35.888 22.086 Q 35.831 21.4 35.5 21.4 A 0.381 0.381 0 0 0 35.376 21.424 Q 35.202 21.484 34.95 21.7 Q 34.6 22 34.4 22.3 L 34.2 22.6 Q 30.992 27.375 27.45 34.237 A 205.563 205.563 0 0 0 25 39.15 A 316.898 316.898 0 0 0 21.592 46.432 Q 19.956 50.053 18.611 53.315 A 169.13 169.13 0 0 0 17.1 57.1 A 144.669 144.669 0 0 1 14.452 63.415 A 115.727 115.727 0 0 1 12.6 67.35 Q 10.405 71.788 8.711 74.313 A 27.233 27.233 0 0 1 8.55 74.55 A 79.781 79.781 0 0 1 7.28 76.35 Q 6.256 77.756 5.35 78.85 Q 3.9 80.6 3.1 81.2 L 2.3 81.8 A 8.312 8.312 0 0 1 1.812 82.172 Q 1.334 82.507 0.975 82.63 A 1.175 1.175 0 0 1 0.6 82.7 A 0.497 0.497 0 0 1 0.124 82.403 Q 0.013 82.182 0.001 81.796 A 3.095 3.095 0 0 1 0 81.7 L 0.1 80.8 A 21.645 21.645 0 0 1 0.86 78.022 Q 2.469 73.215 6.927 64.356 A 314.555 314.555 0 0 1 8.85 60.6 Q 16.6 45.7 23.9 33.4 L 31.2 21.2 L 36.7 11.7 A 114.785 114.785 0 0 1 38.053 8.024 Q 40.815 0.932 42.559 0.108 A 1.031 1.031 0 0 1 43 0 A 0.939 0.939 0 0 1 43.799 0.511 Q 44.5 1.614 44.5 5.1 A 4913.307 4913.307 0 0 0 43.446 17.929 Q 41.4 43.294 41.4 47.6 Q 41.4 49.1 42 49.1 Q 42.6 49.1 43.4 48 Q 44.395 46.698 45.977 44.693 A 621.782 621.782 0 0 1 47 43.4 A 107.929 107.929 0 0 1 48.309 41.788 Q 50.234 39.456 53.602 35.544 A 1026.055 1026.055 0 0 1 55.8 33 Q 62.3 25.5 68.05 19.5 Q 73.8 13.5 80.6 8 A 68.126 68.126 0 0 1 83.85 5.519 Q 87.41 2.978 90.179 1.855 A 14.429 14.429 0 0 1 91.8 1.3 A 27.677 27.677 0 0 1 92.204 1.222 Q 92.74 1.123 92.995 1.104 A 1.451 1.451 0 0 1 93.1 1.1 A 2.352 2.352 0 0 1 93.534 1.136 Q 94.256 1.273 94.298 1.92 A 1.262 1.262 0 0 1 94.3 2 Q 94.3 2.8 93.4 4 Q 89.825 9.156 85.683 16.203 A 332.778 332.778 0 0 0 81.8 23 A 642.72 642.72 0 0 0 78.763 28.519 Q 74.736 35.923 71.985 41.514 A 218.21 218.21 0 0 0 71.6 42.3 Z M 108.1 36.8 L 92.6 36.8 A 478.719 478.719 0 0 0 88.072 45.617 Q 86.08 49.59 83.912 54.061 A 973.575 973.575 0 0 0 79.4 63.5 Q 79.1 64.4 78.45 65.95 Q 77.917 67.222 76.373 70.312 A 316.483 316.483 0 0 1 75.65 71.75 Q 73.5 76 71.15 79.7 Q 68.8 83.4 65.3 87.45 A 37.861 37.861 0 0 1 62.218 90.64 Q 60.49 92.22 58.737 93.361 A 22.352 22.352 0 0 1 58.2 93.7 Q 57.619 94.087 57.122 94.224 A 1.961 1.961 0 0 1 56.6 94.3 A 1.083 1.083 0 0 1 56.151 94.214 Q 55.688 94.004 55.614 93.289 A 2.824 2.824 0 0 1 55.6 93 A 5.549 5.549 0 0 1 55.639 92.373 Q 55.673 92.071 55.739 91.728 A 13.117 13.117 0 0 1 55.9 91 Q 56.2 89.8 56.5 89 L 56.8 88.3 A 101.883 101.883 0 0 1 59.226 82.898 Q 65.591 69.591 82.845 39.278 A 2394.108 2394.108 0 0 1 84.2 36.9 L 80 36.9 Q 79.021 36.9 78.681 36.517 A 0.75 0.75 0 0 1 78.5 36 A 1.409 1.409 0 0 1 78.699 35.291 Q 78.822 35.077 79.021 34.868 A 3.256 3.256 0 0 1 79.25 34.65 A 3.056 3.056 0 0 1 79.814 34.257 A 2.078 2.078 0 0 1 80.8 34 L 85.9 34 L 95.8 17.1 A 26.577 26.577 0 0 0 97.066 14.467 Q 97.615 13.127 97.898 11.92 A 10.612 10.612 0 0 0 98.2 9.5 Q 98.2 7.9 97.6 6.85 Q 97 5.8 96.5 5.5 L 95.9 5.2 A 3.124 3.124 0 0 1 95.528 4.96 Q 95.115 4.647 95.025 4.297 A 0.789 0.789 0 0 1 95 4.1 A 0.863 0.863 0 0 1 95.237 3.508 Q 95.361 3.37 95.55 3.25 A 3.179 3.179 0 0 1 95.863 3.073 Q 96.207 2.906 96.481 2.9 A 0.928 0.928 0 0 1 96.5 2.9 Q 106.6 2.3 117.5 2.3 A 274.8 274.8 0 0 1 122.846 2.349 Q 128.173 2.453 131.95 2.778 A 79.687 79.687 0 0 1 132.2 2.8 A 2.892 2.892 0 0 1 132.784 2.854 Q 133.8 3.064 133.8 4.1 A 1.97 1.97 0 0 1 133.734 4.591 Q 133.659 4.881 133.5 5.2 A 123.668 123.668 0 0 1 131.129 10.436 Q 130.015 12.743 128.932 14.684 A 52.061 52.061 0 0 1 126.8 18.2 Q 126.5 18.7 125.6 18.7 Q 124.936 18.7 124.823 17.874 A 2.77 2.77 0 0 1 124.8 17.5 Q 125.5 15.4 125.5 12.9 A 10.919 10.919 0 0 0 125.093 9.778 Q 124.061 6.324 120.414 5.42 A 12.141 12.141 0 0 0 117.5 5.1 A 17.469 17.469 0 0 0 114.808 5.292 Q 113.458 5.503 112.398 5.947 A 6.113 6.113 0 0 0 109.8 7.9 Q 104.5 14.6 94.1 34 Q 96.167 34 99.729 33.971 A 1796.447 1796.447 0 0 0 102.05 33.95 Q 107.205 33.901 109.708 33.9 A 258.052 258.052 0 0 1 109.8 33.9 A 4.973 4.973 0 0 1 110.116 33.909 Q 110.643 33.943 110.8 34.1 Q 110.883 34.183 110.897 34.334 A 0.703 0.703 0 0 1 110.9 34.4 A 1.374 1.374 0 0 1 110.765 34.974 Q 110.561 35.419 110.05 35.9 A 3.363 3.363 0 0 1 108.968 36.597 A 3.154 3.154 0 0 1 108.1 36.8 Z" vector-effect="non-scaling-stroke"/></g></svg>